<svg width="75" height="15" viewBox="0 0 75 15" fill="none" xmlns="http://www.w3.org/2000/svg">
<path d="M8.59766 14H6.1543V8.4541H2.5332V14H0.0810547V1.20312H2.5332V6.4502H6.1543V1.20312H8.59766V14ZM16.9912 14C16.9326 13.8828 16.8828 13.748 16.8418 13.5957C16.8008 13.4434 16.7656 13.2822 16.7363 13.1123C16.6016 13.2588 16.4463 13.3965 16.2705 13.5254C16.0947 13.6543 15.8984 13.7686 15.6816 13.8682C15.4707 13.9619 15.2363 14.0352 14.9785 14.0879C14.7207 14.1465 14.4424 14.1758 14.1436 14.1758C13.6572 14.1758 13.209 14.1055 12.7988 13.9648C12.3945 13.8242 12.0459 13.6279 11.7529 13.376C11.46 13.124 11.2314 12.8252 11.0674 12.4795C10.9033 12.1279 10.8213 11.7471 10.8213 11.3369C10.8213 10.335 11.1934 9.56152 11.9375 9.0166C12.6875 8.46582 13.8037 8.19043 15.2861 8.19043H16.6484V7.62793C16.6484 7.1709 16.499 6.81055 16.2002 6.54688C15.9014 6.27734 15.4707 6.14258 14.9082 6.14258C14.4102 6.14258 14.0469 6.25098 13.8184 6.46777C13.5898 6.67871 13.4756 6.96289 13.4756 7.32031H11.0322C11.0322 6.91602 11.1201 6.53223 11.2959 6.16895C11.4775 5.80566 11.7383 5.48633 12.0781 5.21094C12.4238 4.93555 12.8428 4.71875 13.335 4.56055C13.833 4.39648 14.4014 4.31445 15.04 4.31445C15.6143 4.31445 16.1475 4.38477 16.6396 4.52539C17.1377 4.66602 17.5684 4.87402 17.9316 5.14941C18.2949 5.4248 18.5791 5.77344 18.7842 6.19531C18.9893 6.61133 19.0918 7.09473 19.0918 7.64551V11.7236C19.0918 12.2334 19.124 12.6553 19.1885 12.9893C19.2529 13.3232 19.3467 13.6104 19.4697 13.8506V14H16.9912ZM14.6621 12.2861C14.9082 12.2861 15.1367 12.2568 15.3477 12.1982C15.5586 12.1396 15.749 12.0635 15.9189 11.9697C16.0889 11.876 16.2354 11.7705 16.3584 11.6533C16.4814 11.5303 16.5781 11.4072 16.6484 11.2842V9.64941H15.4004C15.0195 9.64941 14.6943 9.6875 14.4248 9.76367C14.1553 9.83398 13.9355 9.93652 13.7656 10.0713C13.5957 10.2002 13.4697 10.3584 13.3877 10.5459C13.3057 10.7275 13.2646 10.9268 13.2646 11.1436C13.2646 11.4717 13.3789 11.7441 13.6074 11.9609C13.8418 12.1777 14.1934 12.2861 14.6621 12.2861ZM27.9424 11.0205L28.7686 4.49023H31.0098L29.3047 14H27.1602L25.9121 7.95312L24.708 14H22.5635L20.8584 4.49023H23.0908L23.917 11.0469L25.1123 4.49023H26.7471L27.9424 11.0205ZM36.248 10.0713L35.1406 11.0996V14H32.6973V0.5H35.1406V8.2168L35.8789 7.37305L38.5068 4.49023H41.4424L37.8564 8.4541L41.9434 14H38.9463L36.248 10.0713ZM43.3408 14V1.20312H46.6543C47.5039 1.20312 48.2715 1.34961 48.957 1.64258C49.6484 1.92969 50.2373 2.33398 50.7236 2.85547C51.2158 3.37109 51.5938 3.98926 51.8574 4.70996C52.127 5.43066 52.2617 6.22168 52.2617 7.08301V8.1377C52.2617 8.99902 52.127 9.79004 51.8574 10.5107C51.5938 11.2256 51.2217 11.8438 50.7412 12.3652C50.2607 12.8809 49.6836 13.2822 49.0098 13.5693C48.3359 13.8564 47.5918 14 46.7773 14H43.3408ZM45.8281 3.20703V12.0137H46.7773C47.2402 12.0137 47.6533 11.9258 48.0166 11.75C48.3857 11.5742 48.6963 11.3193 48.9482 10.9854C49.2061 10.6514 49.4023 10.2471 49.5371 9.77246C49.6719 9.29199 49.7393 8.74707 49.7393 8.1377V7.06543C49.7393 6.49121 49.6719 5.96973 49.5371 5.50098C49.4082 5.02637 49.2119 4.61914 48.9482 4.2793C48.6904 3.93945 48.3682 3.67578 47.9814 3.48828C47.6006 3.30078 47.1582 3.20703 46.6543 3.20703H45.8281ZM58.9062 14.1758C58.1738 14.1758 57.5088 14.0557 56.9111 13.8154C56.3135 13.5752 55.8008 13.25 55.373 12.8398C54.9453 12.4238 54.6143 11.9375 54.3799 11.3809C54.1514 10.8184 54.0371 10.2178 54.0371 9.5791V9.22754C54.0371 8.50098 54.1514 7.83887 54.3799 7.24121C54.6084 6.6377 54.9277 6.11914 55.3379 5.68555C55.748 5.25195 56.2344 4.91504 56.7969 4.6748C57.3594 4.43457 57.9717 4.31445 58.6338 4.31445C59.3193 4.31445 59.9287 4.42871 60.4619 4.65723C61.001 4.87988 61.4551 5.19629 61.8242 5.60645C62.1992 6.0166 62.4834 6.51172 62.6768 7.0918C62.8701 7.66602 62.9668 8.30176 62.9668 8.99902V10.0361H56.5156C56.5625 10.3584 56.6562 10.6543 56.7969 10.9238C56.9434 11.1875 57.1279 11.416 57.3506 11.6094C57.5732 11.8027 57.8281 11.9521 58.1152 12.0576C58.4023 12.1631 58.7158 12.2158 59.0557 12.2158C59.2959 12.2158 59.5332 12.1924 59.7676 12.1455C60.0078 12.0986 60.2363 12.0312 60.4531 11.9434C60.6699 11.8496 60.8721 11.7354 61.0596 11.6006C61.2471 11.4658 61.4111 11.3076 61.5518 11.126L62.7734 12.4443C62.6211 12.6611 62.4219 12.875 62.1758 13.0859C61.9355 13.291 61.6484 13.4756 61.3145 13.6396C60.9863 13.7979 60.6201 13.9268 60.2158 14.0264C59.8115 14.126 59.375 14.1758 58.9062 14.1758ZM58.6162 6.29199C58.3408 6.29199 58.0889 6.3418 57.8604 6.44141C57.6318 6.53516 57.4297 6.67285 57.2539 6.85449C57.084 7.03613 56.9404 7.25293 56.8232 7.50488C56.7061 7.75684 56.6182 8.03809 56.5596 8.34863H60.5674V8.15527C60.5557 7.89746 60.5059 7.6543 60.418 7.42578C60.3301 7.19727 60.2041 7.00098 60.04 6.83691C59.876 6.66699 59.6738 6.53516 59.4336 6.44141C59.1992 6.3418 58.9268 6.29199 58.6162 6.29199ZM69.1455 11.1787L69.2686 11.8643L69.3916 11.2051L71.4834 4.49023H74.0322L70.4199 14H68.126L64.4961 4.49023H67.0449L69.1455 11.1787Z" fill="#333333"/>
</svg>
