<svg width="129" height="41" viewBox="0 0 129 41" fill="none" xmlns="http://www.w3.org/2000/svg">
<path d="M33.3685 0.792236V28.7222H27.2125V2.12223L33.3685 0.792236Z" fill="#333333"/>
<path d="M36.2458 18.6902C36.2458 17.2462 36.5245 15.8909 37.0818 14.6242C37.6645 13.3322 38.4372 12.2176 39.3998 11.2802C40.3878 10.3429 41.5405 9.60824 42.8578 9.07624C44.2005 8.5189 45.6318 8.24023 47.1518 8.24023C48.6718 8.24023 50.0905 8.5189 51.4078 9.07624C52.7505 9.60824 53.9032 10.3429 54.8658 11.2802C55.8538 12.2176 56.6265 13.3322 57.1838 14.6242C57.7665 15.8909 58.0578 17.2462 58.0578 18.6902C58.0578 20.1342 57.7665 21.5022 57.1838 22.7942C56.6265 24.0609 55.8538 25.1629 54.8658 26.1002C53.9032 27.0376 52.7505 27.7722 51.4078 28.3042C50.0905 28.8362 48.6718 29.1022 47.1518 29.1022C45.6318 29.1022 44.2005 28.8362 42.8578 28.3042C41.5405 27.7722 40.3878 27.0376 39.3998 26.1002C38.4372 25.1629 37.6645 24.0609 37.0818 22.7942C36.5245 21.5022 36.2458 20.1342 36.2458 18.6902ZM47.1518 23.7822C48.5198 23.7822 49.6725 23.2882 50.6098 22.3002C51.5725 21.3122 52.0538 20.1089 52.0538 18.6902C52.0538 17.2462 51.5725 16.0302 50.6098 15.0422C49.6725 14.0542 48.5198 13.5602 47.1518 13.5602C45.7838 13.5602 44.6185 14.0542 43.6558 15.0422C42.7185 16.0302 42.2498 17.2462 42.2498 18.6902C42.2498 20.1089 42.7185 21.3122 43.6558 22.3002C44.6185 23.2882 45.7838 23.7822 47.1518 23.7822Z" fill="#333333"/>
<path d="M59.3869 26.4802L62.3129 22.3382C63.5796 23.0982 64.7323 23.6556 65.7709 24.0102C66.8096 24.3396 67.8356 24.5042 68.8489 24.5042C69.8623 24.5042 70.6603 24.3649 71.2429 24.0862C71.8509 23.7822 72.1549 23.3896 72.1549 22.9082C72.1549 22.5282 71.9903 22.2242 71.6609 21.9962C71.3316 21.7429 70.8123 21.5656 70.1029 21.4642L66.1129 20.8562C64.1369 20.5522 62.6169 19.8936 61.5529 18.8802C60.4889 17.8416 59.9569 16.4989 59.9569 14.8522C59.9569 12.8256 60.7296 11.2296 62.2749 10.0642C63.8203 8.8989 65.9356 8.31624 68.6209 8.31624C70.0649 8.31624 71.5089 8.53157 72.9529 8.96223C74.4223 9.36757 75.7776 9.9629 77.0189 10.7482L74.0929 14.7002C73.0036 14.0669 71.9649 13.6109 70.9769 13.3322C69.9889 13.0282 69.0009 12.8762 68.0129 12.8762C67.2276 12.8762 66.5943 13.0156 66.1129 13.2942C65.6316 13.5476 65.3909 13.8896 65.3909 14.3202C65.3909 14.7256 65.5683 15.0549 65.9229 15.3082C66.2776 15.5362 66.8856 15.7136 67.7469 15.8402L71.7369 16.4482C73.7129 16.7269 75.2329 17.3856 76.2969 18.4242C77.3863 19.4376 77.9309 20.7296 77.9309 22.3002C77.9309 23.2629 77.7029 24.1622 77.2469 24.9982C76.7909 25.8342 76.1576 26.5562 75.3469 27.1642C74.5616 27.7722 73.6116 28.2536 72.4969 28.6082C71.3823 28.9376 70.1789 29.1022 68.8869 29.1022C66.9869 29.1022 65.2136 28.8869 63.5669 28.4562C61.9456 28.0002 60.5523 27.3416 59.3869 26.4802Z" fill="#333333"/>
<path d="M78.7209 26.4802L81.6469 22.3382C82.9136 23.0982 84.0663 23.6556 85.1049 24.0102C86.1436 24.3396 87.1696 24.5042 88.1829 24.5042C89.1963 24.5042 89.9943 24.3649 90.5769 24.0862C91.1849 23.7822 91.4889 23.3896 91.4889 22.9082C91.4889 22.5282 91.3243 22.2242 90.9949 21.9962C90.6656 21.7429 90.1463 21.5656 89.4369 21.4642L85.4469 20.8562C83.4709 20.5522 81.9509 19.8936 80.8869 18.8802C79.8229 17.8416 79.2909 16.4989 79.2909 14.8522C79.2909 12.8256 80.0636 11.2296 81.6089 10.0642C83.1543 8.8989 85.2696 8.31624 87.9549 8.31624C89.3989 8.31624 90.8429 8.53157 92.2869 8.96223C93.7563 9.36757 95.1116 9.9629 96.3529 10.7482L93.4269 14.7002C92.3376 14.0669 91.2989 13.6109 90.3109 13.3322C89.3229 13.0282 88.3349 12.8762 87.3469 12.8762C86.5616 12.8762 85.9283 13.0156 85.4469 13.2942C84.9656 13.5476 84.7249 13.8896 84.7249 14.3202C84.7249 14.7256 84.9023 15.0549 85.2569 15.3082C85.6116 15.5362 86.2196 15.7136 87.0809 15.8402L91.0709 16.4482C93.0469 16.7269 94.5669 17.3856 95.6309 18.4242C96.7203 19.4376 97.2649 20.7296 97.2649 22.3002C97.2649 23.2629 97.0369 24.1622 96.5809 24.9982C96.1249 25.8342 95.4916 26.5562 94.6809 27.1642C93.8956 27.7722 92.9456 28.2536 91.8309 28.6082C90.7163 28.9376 89.5129 29.1022 88.2209 29.1022C86.3209 29.1022 84.5476 28.8869 82.9009 28.4562C81.2796 28.0002 79.8863 27.3416 78.7209 26.4802Z" fill="#333333"/>
<path d="M118.228 26.0622C116.962 27.1262 115.657 27.8989 114.314 28.3802C112.997 28.8616 111.502 29.1022 109.83 29.1022C108.31 29.1022 106.879 28.8362 105.536 28.3042C104.194 27.7722 103.028 27.0376 102.04 26.1002C101.078 25.1629 100.305 24.0609 99.7225 22.7942C99.1651 21.5022 98.8865 20.1342 98.8865 18.6902C98.8865 17.2462 99.1525 15.8909 99.6845 14.6242C100.242 13.3322 100.989 12.2176 101.926 11.2802C102.864 10.3429 103.966 9.60824 105.232 9.07624C106.524 8.54424 107.905 8.27823 109.374 8.27823C110.844 8.27823 112.199 8.5569 113.44 9.11423C114.682 9.67157 115.746 10.4316 116.632 11.3942C117.544 12.3569 118.254 13.5222 118.76 14.8902C119.267 16.2329 119.52 17.6896 119.52 19.2602V20.7802H105.194C105.6 21.7176 106.233 22.4902 107.094 23.0982C107.956 23.6809 108.969 23.9722 110.134 23.9722C110.97 23.9722 111.73 23.8456 112.414 23.5922C113.098 23.3136 113.681 22.9336 114.162 22.4522L118.228 26.0622ZM109.26 13.2942C108.247 13.2942 107.373 13.5729 106.638 14.1302C105.904 14.6876 105.384 15.4729 105.08 16.4862H113.478C113.149 15.5236 112.604 14.7509 111.844 14.1682C111.11 13.5856 110.248 13.2942 109.26 13.2942Z" fill="#333333"/>
<path d="M128.554 0.792236V28.7222H122.398V2.12223L128.554 0.792236Z" fill="#333333"/>
<path d="M0 19.2732C0 17.7807 0.287456 16.3798 0.862369 15.0707C1.46341 13.7353 2.26045 12.5832 3.25348 11.6144C4.27265 10.6456 5.46167 9.88622 6.82056 9.33636C8.20557 8.76031 9.68206 8.47229 11.25 8.47229C12.8179 8.47229 14.2814 8.76031 15.6402 9.33636C17.0253 9.88622 18.2143 10.6456 19.2073 11.6144C20.2265 12.5832 21.0235 13.7353 21.5984 15.0707C22.1995 16.3798 22.5 17.7807 22.5 19.2732C22.5 20.7657 22.1995 22.1796 21.5984 23.515C21.0235 24.8242 20.2265 25.9632 19.2073 26.932C18.2143 27.9008 17.0253 28.6601 15.6402 29.21C14.2814 29.7599 12.8179 30.0348 11.25 30.0348C9.68206 30.0348 8.20557 29.7599 6.82056 29.21C5.46167 28.6601 4.27265 27.9008 3.25348 26.932C2.26045 25.9632 1.46341 24.8242 0.862369 23.515C0.287456 22.1796 0 20.7657 0 19.2732ZM11.25 24.5362C12.6611 24.5362 13.8502 24.0256 14.8171 23.0044C15.8101 21.9832 16.3066 20.7395 16.3066 19.2732C16.3066 17.7807 15.8101 16.5239 14.8171 15.5027C13.8502 14.4815 12.6611 13.9709 11.25 13.9709C9.83885 13.9709 8.63676 14.4815 7.64373 15.5027C6.67683 16.5239 6.19338 17.7807 6.19338 19.2732C6.19338 20.7395 6.67683 21.9832 7.64373 23.0044C8.63676 24.0256 9.83885 24.5362 11.25 24.5362Z" fill="#333333"/>
<path d="M24.2898 8.47229H11.2499C12.3768 10.4677 15.6931 14.0973 19.9432 14.0973C24.1933 14.0973 24.6118 10.4677 24.2898 8.47229Z" fill="#333333"/>
<path d="M0 34.7222H21.5625V40.3472H0V34.7222Z" fill="#333333"/>
</svg>
