<svg width="132" height="40" viewBox="0 0 132 40" fill="none" xmlns="http://www.w3.org/2000/svg">
<path d="M51.4209 28.3008L53.6914 27.7734V9.52148L51.4795 9.22852V7.25098H55.874C56.333 7.25098 56.7773 7.24121 57.207 7.22168C57.6465 7.20215 58.0811 7.17773 58.5107 7.14844C58.9404 7.11914 59.375 7.09473 59.8145 7.0752C60.2539 7.05566 60.708 7.0459 61.1768 7.0459C63.1396 7.0459 64.8242 7.30957 66.2305 7.83691C67.6465 8.35449 68.8135 9.0918 69.7314 10.0488C70.6494 11.0059 71.3232 12.1582 71.7529 13.5059C72.1924 14.8535 72.4121 16.3477 72.4121 17.9883C72.4121 19.9121 72.1191 21.6309 71.5332 23.1445C70.9473 24.6484 70.1318 25.9229 69.0869 26.9678C68.0518 28.0127 66.8213 28.8086 65.3955 29.3555C63.9697 29.9023 62.4121 30.166 60.7227 30.1465C60.3613 30.1465 59.9756 30.1367 59.5654 30.1172C59.165 30.0977 58.7549 30.0781 58.335 30.0586C57.9248 30.0391 57.5146 30.0195 57.1045 30C56.6943 29.9902 56.3037 29.9854 55.9326 29.9854C55.1807 29.9854 54.4287 29.9902 53.6768 30C52.9248 30 52.1729 30 51.4209 30V28.3008ZM57.9102 27.6709C58.8379 28.0811 60.0781 28.2324 61.6309 28.125C62.5098 28.0762 63.335 27.8369 64.1064 27.4072C64.8779 26.9775 65.5518 26.3721 66.1279 25.5908C66.7139 24.7998 67.1729 23.8477 67.5049 22.7344C67.8369 21.6113 68.0029 20.3369 68.0029 18.9111C68.0029 17.251 67.8369 15.8057 67.5049 14.5752C67.1826 13.3447 66.7041 12.3242 66.0693 11.5137C65.4443 10.6934 64.668 10.083 63.7402 9.68262C62.8223 9.28223 61.7725 9.08203 60.5908 9.08203C59.9951 9.0918 59.4775 9.13086 59.0381 9.19922C58.5986 9.25781 58.2227 9.34082 57.9102 9.44824V27.6709Z" fill="#333333"/>
<path d="M74.7705 22.0605C74.7705 20.8105 74.9707 19.6436 75.3711 18.5596C75.7715 17.4756 76.3428 16.5381 77.085 15.7471C77.8369 14.9463 78.7402 14.3164 79.7949 13.8574C80.8594 13.3887 82.0508 13.1494 83.3691 13.1396C84.4141 13.1299 85.3271 13.2715 86.1084 13.5645C86.8896 13.8477 87.5391 14.2578 88.0566 14.7949C88.584 15.3223 88.9844 15.9668 89.2578 16.7285C89.5312 17.4805 89.6875 18.3203 89.7266 19.248C89.7461 19.8633 89.7314 20.4053 89.6826 20.874C89.6338 21.333 89.585 21.7529 89.5361 22.1338H79.0332C79.0332 22.1631 79.0332 22.1924 79.0332 22.2217C79.043 22.2412 79.0479 22.2607 79.0479 22.2803C79.1064 23.2861 79.2725 24.1406 79.5459 24.8438C79.8291 25.5469 80.1953 26.123 80.6445 26.5723C81.1035 27.0117 81.6309 27.334 82.2266 27.5391C82.8223 27.7441 83.457 27.8467 84.1309 27.8467C84.4922 27.8467 84.873 27.8271 85.2734 27.7881C85.6836 27.749 86.084 27.6904 86.4746 27.6123C86.875 27.5342 87.2607 27.4365 87.6318 27.3193C88.0029 27.2021 88.3447 27.0654 88.6572 26.9092L89.3311 28.4912C88.999 28.7744 88.584 29.0381 88.0859 29.2822C87.5879 29.5166 87.0459 29.7168 86.46 29.8828C85.874 30.0488 85.2539 30.1758 84.5996 30.2637C83.9551 30.3516 83.3105 30.3906 82.666 30.3809C81.4062 30.3711 80.2832 30.1709 79.2969 29.7803C78.3203 29.3896 77.4951 28.8379 76.8213 28.125C76.1475 27.4121 75.6348 26.5479 75.2832 25.5322C74.9414 24.5068 74.7705 23.3496 74.7705 22.0605ZM85.5664 20.0537C85.5957 19.6338 85.6152 19.1992 85.625 18.75C85.6348 18.291 85.6055 17.8516 85.5371 17.4316C85.4785 17.0117 85.3613 16.626 85.1855 16.2744C85.0195 15.9229 84.7705 15.6348 84.4385 15.4102C84.2334 15.2734 83.9941 15.166 83.7207 15.0879C83.4473 15.0098 83.1348 14.9707 82.7832 14.9707C82.207 14.9707 81.6992 15.1025 81.2598 15.3662C80.8301 15.6299 80.4639 15.9912 80.1611 16.4502C79.8584 16.9092 79.6143 17.4512 79.4287 18.0762C79.2529 18.6914 79.1357 19.3506 79.0771 20.0537H85.5664Z" fill="#333333"/>
<path d="M92.334 28.3301L94.3994 27.9639V9.24316L92.2607 8.54004V6.82617L97.8271 6.15234L98.5596 6.44531V27.9492L101.152 28.3301V30H92.334V28.3301Z" fill="#333333"/>
<path d="M104.8 15.8936H102.573V14.4727C102.905 14.4043 103.203 14.3408 103.467 14.2822C103.74 14.2139 103.979 14.1406 104.185 14.0625C104.399 13.9746 104.59 13.8721 104.756 13.7549C104.932 13.6377 105.088 13.4814 105.225 13.2861C105.342 13.1396 105.464 12.9346 105.591 12.6709C105.728 12.4072 105.859 12.1143 105.986 11.792C106.123 11.4697 106.25 11.1279 106.367 10.7666C106.494 10.4053 106.606 10.0488 106.704 9.69727H108.726V13.6084H113.691V15.8936H108.857V22.1191C108.857 23.3496 108.877 24.3359 108.916 25.0781C108.965 25.8203 109.053 26.3916 109.18 26.792C109.316 27.1924 109.497 27.4561 109.722 27.583C109.946 27.71 110.244 27.7734 110.615 27.7734C110.83 27.7734 111.069 27.7588 111.333 27.7295C111.606 27.6904 111.87 27.6465 112.124 27.5977C112.378 27.5391 112.612 27.4756 112.827 27.4072C113.052 27.3291 113.228 27.251 113.354 27.1729L113.984 28.6816C113.76 28.9258 113.452 29.1504 113.062 29.3555C112.671 29.5605 112.231 29.7363 111.743 29.8828C111.265 30.0293 110.757 30.1416 110.22 30.2197C109.692 30.3076 109.17 30.3516 108.652 30.3516C107.939 30.3516 107.339 30.2539 106.851 30.0586C106.362 29.873 105.967 29.585 105.664 29.1943C105.361 28.7939 105.142 28.2861 105.005 27.6709C104.868 27.0557 104.8 26.3232 104.8 25.4736V15.8936Z" fill="#333333"/>
<path d="M116.27 24.6826C116.377 24.0674 116.621 23.5254 117.002 23.0566C117.383 22.5781 117.847 22.1631 118.394 21.8115C118.94 21.46 119.546 21.167 120.21 20.9326C120.874 20.6885 121.538 20.498 122.202 20.3613C122.866 20.2148 123.511 20.1123 124.136 20.0537C124.761 19.9854 125.308 19.9512 125.776 19.9512V19.3945C125.776 18.623 125.693 17.9932 125.527 17.5049C125.361 17.0166 125.122 16.6357 124.81 16.3623C124.507 16.0791 124.141 15.8887 123.711 15.791C123.281 15.6934 122.803 15.6445 122.275 15.6445C121.787 15.6445 121.313 15.6885 120.854 15.7764C120.396 15.8545 119.966 15.9521 119.565 16.0693C119.165 16.1865 118.804 16.3184 118.481 16.4648C118.159 16.6016 117.891 16.7285 117.676 16.8457L116.885 14.9854C117.129 14.7803 117.476 14.5752 117.925 14.3701C118.384 14.1553 118.911 13.9648 119.507 13.7988C120.103 13.623 120.752 13.4814 121.455 13.374C122.158 13.2666 122.886 13.2129 123.638 13.2129C124.526 13.2129 125.356 13.3008 126.128 13.4766C126.899 13.6426 127.568 13.9453 128.135 14.3848C128.701 14.8145 129.146 15.4004 129.468 16.1426C129.79 16.875 129.951 17.8125 129.951 18.9551L129.937 28.3301H131.826V29.6338C131.611 29.7705 131.367 29.8877 131.094 29.9854C130.82 30.083 130.532 30.1611 130.229 30.2197C129.937 30.2783 129.639 30.3174 129.336 30.3369C129.033 30.3662 128.745 30.3809 128.472 30.3809C128.286 30.3809 128.066 30.3613 127.812 30.3223C127.559 30.293 127.314 30.2197 127.08 30.1025C126.846 29.9951 126.646 29.834 126.479 29.6191C126.313 29.3945 126.23 29.0967 126.23 28.7256V28.5938C125.732 29.0918 125.117 29.5166 124.385 29.8682C123.652 30.21 122.764 30.3809 121.719 30.3809C120.664 30.3809 119.761 30.2246 119.009 29.9121C118.257 29.5996 117.651 29.1797 117.192 28.6523C116.743 28.125 116.44 27.5195 116.284 26.8359C116.138 26.1523 116.133 25.4346 116.27 24.6826ZM120.371 25.1953C120.371 26.2402 120.654 26.9824 121.221 27.4219C121.787 27.8613 122.603 28.042 123.667 27.9639C124.087 27.9248 124.468 27.8125 124.81 27.627C125.161 27.4316 125.479 27.2217 125.762 26.9971C125.762 26.1377 125.762 25.2832 125.762 24.4336C125.771 23.584 125.776 22.7295 125.776 21.8701C125.425 21.8701 125.044 21.8896 124.634 21.9287C124.233 21.9678 123.833 22.0361 123.433 22.1338C123.032 22.2314 122.646 22.3633 122.275 22.5293C121.914 22.6953 121.592 22.9004 121.309 23.1445C121.025 23.3887 120.796 23.6816 120.62 24.0234C120.454 24.3555 120.371 24.7461 120.371 25.1953Z" fill="#333333"/>
<path d="M24.6956 17.1949C21.0848 17.1949 18.2939 20.141 18.2939 23.6099C18.2939 27.2281 21.0848 29.9833 24.9855 29.9833C28.2567 29.9833 31.0062 27.2779 31.0062 23.7095C31.0062 19.9916 28.2567 17.1949 24.6956 17.1949Z" fill="#333333"/>
<path d="M31.2712 33.8423C28.6211 36.0664 26.5342 36.8797 23.4534 36.8797C20.323 36.8797 17.5487 35.8672 15.2795 33.8423C12.2899 31.1867 10.7081 27.7178 10.7081 23.6598C10.7081 19.9419 12.1325 16.6141 14.8323 14.0083C17.234 11.6432 20.1159 10.4398 23.3872 10.4398C26.5176 10.4398 29.2754 11.5021 30.6004 13.7261V3.12033C27.2961 1.14523 23.9006 0 19.9586 0C8.91925 0 0 8.96266 0 20.0249C0 31.0871 8.96066 40 20 40C24.0745 40 27.8675 38.6141 31.0311 36.6224H31.2795V33.8423H31.2712Z" fill="#333333"/>
<path d="M38.5588 28.0581C39.6354 25.6017 39.9916 22.888 39.9916 20.0332C39.9916 17.1784 39.6354 14.4647 38.5588 12.0083" fill="#333333"/>
<path d="M38.559 12V0.846436L30.6086 2.4232V3.12029C33.9213 5.24477 36.5714 8.33191 38.559 12Z" fill="#333333"/>
<path d="M38.559 28.058C36.5714 31.6099 34.4679 34.6389 31.2712 36.6306H38.559V28.058Z" fill="#333333"/>
</svg>
