<svg width="175" height="42" viewBox="0 0 175 42" fill="none" xmlns="http://www.w3.org/2000/svg">
<path d="M72.1499 23.9091L70.4759 24.1261C70.4553 24.9941 70.4346 25.8621 70.4139 26.7301C70.4139 27.5774 70.4139 28.4454 70.4139 29.3341V30.6671C69.3186 31.2664 68.2336 31.7107 67.1589 32.0001C66.0843 32.3101 64.9269 32.4651 63.6869 32.4651C62.0543 32.4651 60.5766 32.1964 59.2539 31.6591C57.9313 31.1217 56.7946 30.3881 55.8439 29.4581C54.9139 28.5074 54.1906 27.3914 53.6739 26.1101C53.1779 24.8081 52.9299 23.3924 52.9299 21.8631C52.9299 20.3337 53.1883 18.9181 53.7049 17.6161C54.2216 16.3141 54.9553 15.1981 55.9059 14.2681C56.8773 13.3174 58.0449 12.5734 59.4089 12.0361C60.7729 11.4987 62.3023 11.2301 63.9969 11.2301C64.9889 11.2301 65.9809 11.3437 66.9729 11.5711C67.9649 11.7777 69.0086 12.1497 70.1039 12.6871L70.2279 17.0891H67.7479L67.1899 13.6481C66.2186 13.1727 65.2266 12.9351 64.2139 12.9351C62.2093 12.9351 60.6179 13.7101 59.4399 15.2601C58.2619 16.8101 57.6729 19.0111 57.6729 21.8631C57.6729 23.2684 57.8383 24.5291 58.1689 25.6451C58.5203 26.7404 58.9853 27.6704 59.5639 28.4351C60.1633 29.1997 60.8659 29.7784 61.6719 30.1711C62.4779 30.5637 63.3563 30.7601 64.3069 30.7601C64.9063 30.7601 65.4539 30.6877 65.9499 30.5431V29.3341C65.9499 28.4661 65.9396 27.6084 65.9189 26.7611C65.9189 25.9137 65.9086 25.0561 65.8879 24.1881L63.5939 23.9091V22.3591H72.1499V23.9091Z" fill="#333333"/>
<path d="M90.5349 30.6361V32.0001L84.8309 32.3101L84.6139 29.7371C83.8285 30.6257 83.0122 31.3077 82.1649 31.7831C81.3175 32.2377 80.3979 32.4651 79.4059 32.4651C78.7445 32.4651 78.1452 32.3617 77.6079 32.1551C77.0912 31.9691 76.6365 31.6591 76.2439 31.2251C75.8719 30.7704 75.5825 30.1917 75.3759 29.4891C75.1692 28.7864 75.0762 27.9184 75.0969 26.8851L75.2209 18.9801L73.5159 18.6701V17.4301L79.0959 16.8721L79.4679 17.1201L79.3129 21.5221V26.2961C79.3129 27.6601 79.4885 28.6107 79.8399 29.1481C80.1912 29.6647 80.6459 29.9231 81.2039 29.9231C81.7412 29.9231 82.2889 29.7474 82.8469 29.3961C83.4255 29.0447 83.9835 28.6107 84.5209 28.0941L84.6449 18.9801L82.9399 18.6701V17.4921L88.4579 16.8721L88.8299 17.1201L88.7369 21.5221V30.2641L90.5349 30.6361Z" fill="#333333"/>
<path d="M101.061 24.0021C100.669 24.1054 100.297 24.2191 99.9453 24.3431C99.6146 24.4464 99.3253 24.5497 99.0773 24.6531C98.168 25.0044 97.5376 25.4487 97.1863 25.9861C96.835 26.5234 96.6593 27.1227 96.6593 27.7841C96.6593 28.1974 96.711 28.5281 96.8143 28.7761C96.9383 29.0241 97.083 29.2307 97.2483 29.3961C97.6823 29.8301 98.261 30.0471 98.9843 30.0471C99.315 30.0471 99.6353 29.9954 99.9453 29.8921C100.255 29.7681 100.627 29.5511 101.061 29.2411V24.0021ZM107.943 30.0471C107.53 30.8944 107.055 31.4834 106.517 31.8141C106.001 32.1447 105.35 32.3101 104.564 32.3101C103.717 32.3101 103.014 32.1447 102.456 31.8141C101.898 31.4834 101.506 31.0494 101.278 30.5121C100.576 31.1527 99.8936 31.6384 99.2323 31.9691C98.5916 32.2997 97.7856 32.4651 96.8143 32.4651C95.5743 32.4651 94.5616 32.1551 93.7763 31.5351C93.0116 30.8944 92.6293 29.9644 92.6293 28.7451C92.6293 28.2697 92.7016 27.8047 92.8463 27.3501C93.0116 26.8747 93.301 26.4201 93.7143 25.9861C94.1483 25.5314 94.7373 25.0974 95.4813 24.6841C96.2253 24.2707 97.1863 23.8677 98.3643 23.4751C98.7156 23.3511 99.129 23.2271 99.6043 23.1031C100.08 22.9584 100.565 22.8137 101.061 22.6691V21.7391C101.061 20.4371 100.865 19.5071 100.472 18.9491C100.08 18.3911 99.3873 18.1121 98.3953 18.1121C98.23 18.1121 98.0646 18.1224 97.8993 18.1431C97.7546 18.1431 97.5996 18.1534 97.4343 18.1741L97.1863 19.9721C97.083 20.7781 96.835 21.3774 96.4423 21.7701C96.0496 22.1627 95.5846 22.3591 95.0473 22.3591C94.572 22.3591 94.1586 22.2144 93.8073 21.9251C93.4766 21.6357 93.2596 21.2534 93.1563 20.7781C93.301 19.5587 93.952 18.5564 95.1093 17.7711C96.2666 16.9651 97.8373 16.5621 99.8213 16.5621C100.793 16.5621 101.619 16.6757 102.301 16.9031C103.004 17.1097 103.572 17.4611 104.006 17.9571C104.44 18.4324 104.761 19.0731 104.967 19.8791C105.174 20.6644 105.277 21.6357 105.277 22.7931V29.1791C105.277 29.5097 105.339 29.7784 105.463 29.9851C105.587 30.1917 105.784 30.2951 106.052 30.2951C106.259 30.2951 106.424 30.2331 106.548 30.1091C106.672 29.9851 106.817 29.8301 106.982 29.6441L107.137 29.4581L107.943 30.0471Z" fill="#333333"/>
<path d="M115.11 19.9101C115.689 18.8561 116.35 18.0397 117.094 17.4611C117.838 16.8617 118.572 16.5621 119.295 16.5621C119.729 16.5621 120.173 16.6964 120.628 16.9651C121.103 17.2337 121.424 17.7401 121.589 18.4841C121.589 19.1661 121.393 19.7241 121 20.1581C120.607 20.5714 120.08 20.7781 119.419 20.7781C118.613 20.7781 117.817 20.3544 117.032 19.5071L116.97 19.4451C116.598 19.7964 116.247 20.1994 115.916 20.6541C115.606 21.0881 115.337 21.5944 115.11 22.1731V25.4901C115.11 26.1514 115.11 26.9057 115.11 27.7531C115.11 28.6004 115.12 29.4064 115.141 30.1711L117.497 30.6361V32.0001H108.972V30.6361L110.863 30.2641C110.884 29.4994 110.894 28.6831 110.894 27.8151C110.894 26.9264 110.894 26.1514 110.894 25.4901V23.6921C110.894 23.2581 110.894 22.8861 110.894 22.5761C110.894 22.2661 110.884 21.9767 110.863 21.7081C110.863 21.4187 110.853 21.1501 110.832 20.9021C110.832 20.6334 110.822 20.3441 110.801 20.0341L108.724 19.7551V18.5771L114.335 16.5621L114.8 16.8721L115.11 19.9101Z" fill="#333333"/>
<path d="M132.981 19.9721C132.547 19.6621 132.113 19.4141 131.679 19.2281C131.266 19.0421 130.842 18.9491 130.408 18.9491C129.954 18.9491 129.52 19.0627 129.106 19.2901C128.693 19.5174 128.321 19.8584 127.99 20.3131C127.68 20.7677 127.422 21.3464 127.215 22.0491C127.029 22.7311 126.936 23.5474 126.936 24.4981C126.936 26.3787 127.246 27.7737 127.866 28.6831C128.507 29.5924 129.292 30.0471 130.222 30.0471C130.677 30.0471 131.132 29.9541 131.586 29.7681C132.062 29.5614 132.527 29.3031 132.981 28.9931V19.9721ZM138.995 30.6361V32.0001L133.353 32.3101L133.105 30.4811C132.485 31.1217 131.814 31.6177 131.09 31.9691C130.367 32.2997 129.53 32.4651 128.579 32.4651C127.711 32.4651 126.895 32.2997 126.13 31.9691C125.386 31.6384 124.735 31.1424 124.177 30.4811C123.64 29.8197 123.216 29.0034 122.906 28.0321C122.596 27.0401 122.441 25.8931 122.441 24.5911C122.441 23.3511 122.607 22.2351 122.937 21.2431C123.289 20.2511 123.764 19.4141 124.363 18.7321C124.963 18.0294 125.655 17.4921 126.44 17.1201C127.246 16.7481 128.114 16.5621 129.044 16.5621C129.912 16.5621 130.677 16.7067 131.338 16.9961C132 17.2854 132.599 17.6987 133.136 18.2361V12.6251L130.656 12.3151V11.0751L136.887 9.68005L137.321 9.92805L137.197 14.3301V30.2641L138.995 30.6361Z" fill="#333333"/>
<path d="M149.226 24.0021C148.834 24.1054 148.462 24.2191 148.11 24.3431C147.78 24.4464 147.49 24.5497 147.242 24.6531C146.333 25.0044 145.703 25.4487 145.351 25.9861C145 26.5234 144.824 27.1227 144.824 27.7841C144.824 28.1974 144.876 28.5281 144.979 28.7761C145.103 29.0241 145.248 29.2307 145.413 29.3961C145.847 29.8301 146.426 30.0471 147.149 30.0471C147.48 30.0471 147.8 29.9954 148.11 29.8921C148.42 29.7681 148.792 29.5511 149.226 29.2411V24.0021ZM156.108 30.0471C155.695 30.8944 155.22 31.4834 154.682 31.8141C154.166 32.1447 153.515 32.3101 152.729 32.3101C151.882 32.3101 151.179 32.1447 150.621 31.8141C150.063 31.4834 149.671 31.0494 149.443 30.5121C148.741 31.1527 148.059 31.6384 147.397 31.9691C146.757 32.2997 145.951 32.4651 144.979 32.4651C143.739 32.4651 142.727 32.1551 141.941 31.5351C141.177 30.8944 140.794 29.9644 140.794 28.7451C140.794 28.2697 140.867 27.8047 141.011 27.3501C141.177 26.8747 141.466 26.4201 141.879 25.9861C142.313 25.5314 142.902 25.0974 143.646 24.6841C144.39 24.2707 145.351 23.8677 146.529 23.4751C146.881 23.3511 147.294 23.2271 147.769 23.1031C148.245 22.9584 148.73 22.8137 149.226 22.6691V21.7391C149.226 20.4371 149.03 19.5071 148.637 18.9491C148.245 18.3911 147.552 18.1121 146.56 18.1121C146.395 18.1121 146.23 18.1224 146.064 18.1431C145.92 18.1431 145.765 18.1534 145.599 18.1741L145.351 19.9721C145.248 20.7781 145 21.3774 144.607 21.7701C144.215 22.1627 143.75 22.3591 143.212 22.3591C142.737 22.3591 142.324 22.2144 141.972 21.9251C141.642 21.6357 141.425 21.2534 141.321 20.7781C141.466 19.5587 142.117 18.5564 143.274 17.7711C144.432 16.9651 146.002 16.5621 147.986 16.5621C148.958 16.5621 149.784 16.6757 150.466 16.9031C151.169 17.1097 151.737 17.4611 152.171 17.9571C152.605 18.4324 152.926 19.0731 153.132 19.8791C153.339 20.6644 153.442 21.6357 153.442 22.7931V29.1791C153.442 29.5097 153.504 29.7784 153.628 29.9851C153.752 30.1917 153.949 30.2951 154.217 30.2951C154.424 30.2951 154.589 30.2331 154.713 30.1091C154.837 29.9851 154.982 29.8301 155.147 29.6441L155.302 29.4581L156.108 30.0471Z" fill="#333333"/>
<path d="M174.621 30.6361V32.0001H166.685V30.6361L168.576 30.2641C168.597 29.4994 168.607 28.6831 168.607 27.8151C168.607 26.9471 168.607 26.1721 168.607 25.4901V22.5141C168.607 21.3361 168.483 20.4784 168.235 19.9411C167.987 19.3831 167.501 19.1041 166.778 19.1041C166.179 19.1041 165.59 19.2694 165.011 19.6001C164.453 19.9101 163.874 20.3544 163.275 20.9331V25.4901C163.275 26.1514 163.275 26.9264 163.275 27.8151C163.275 28.6831 163.285 29.4994 163.306 30.2641L165.073 30.6361V32.0001H157.137V30.6361L159.028 30.2641C159.049 29.4787 159.059 28.6521 159.059 27.7841C159.059 26.9161 159.059 26.1514 159.059 25.4901V23.7231C159.059 23.2891 159.059 22.9171 159.059 22.6071C159.059 22.2764 159.049 21.9767 159.028 21.7081C159.028 21.4187 159.018 21.1501 158.997 20.9021C158.997 20.6334 158.987 20.3441 158.966 20.0341L156.889 19.7551V18.5771L162.5 16.5621L162.965 16.8721L163.182 19.3211C163.616 18.8251 164.019 18.4117 164.391 18.0811C164.784 17.7297 165.176 17.4404 165.569 17.2131C165.962 16.9857 166.365 16.8204 166.778 16.7171C167.212 16.6137 167.698 16.5621 168.235 16.5621C169.723 16.5621 170.86 17.0064 171.645 17.8951C172.43 18.7631 172.823 20.1374 172.823 22.0181V25.4901C172.823 26.1721 172.823 26.9574 172.823 27.8461C172.823 28.7141 172.833 29.5201 172.854 30.2641L174.621 30.6361Z" fill="#333333"/>
<path d="M4.2 0C1.8804 0 0 1.88041 0 4.2V37.8C0 39.7533 1.33335 41.3951 3.13952 41.865C3.8145 39.9807 5.49592 38.402 8.18378 37.129C6.84324 36.5623 5.87027 35.8213 5.26486 34.9059C4.7027 33.9905 4.42162 32.9879 4.42162 31.8982C4.42162 30.3725 4.85405 28.9341 5.71892 27.5828C6.58378 26.1879 7.81622 24.7931 9.41622 23.3982C7.64324 22.4828 6.32432 21.2623 5.45946 19.7366C4.63784 18.211 4.22703 16.511 4.22703 14.6367C4.22703 13.111 4.48649 11.7161 5.00541 10.452C5.56757 9.14434 6.41081 8.01101 7.53513 7.05204C8.65946 6.09306 10.0649 5.35203 11.7514 4.82896C13.4811 4.30588 15.4919 4.04434 17.7838 4.04434C20.1189 4.04434 22.1297 4.30588 23.8162 4.82896C25.5459 5.35203 26.973 6.09306 28.0973 7.05204L35.3622 3.91357L36.4 4.56742V9.60203H30.2378C31.0162 11.0405 31.4054 12.7187 31.4054 14.6367C31.4054 16.1187 31.1243 17.4918 30.5622 18.7559C30 20.02 29.1568 21.1315 28.0324 22.0905C26.9081 23.0059 25.4811 23.7469 23.7514 24.3136C22.0649 24.8366 20.0757 25.0982 17.7838 25.0982C15.5351 25.0982 13.5676 24.8366 11.8811 24.3136C11.3622 25.229 11.1027 26.2315 11.1027 27.3213C11.1027 28.0623 11.3838 28.6725 11.9459 29.152C12.5081 29.5879 13.4811 29.8059 14.8649 29.8059H22.4541C24.9189 29.8059 26.9946 30.0456 28.6811 30.5251C30.3676 30.961 31.7297 31.6149 32.7676 32.4866C33.8486 33.3149 34.6054 34.3174 35.0378 35.4943C35.5135 36.6277 35.7514 37.9136 35.7514 39.352C35.7514 40.268 35.6257 41.1507 35.3745 42H37.8C40.1196 42 42 40.1196 42 37.8V4.2C42 1.8804 40.1196 0 37.8 0H4.2Z" fill="#333333"/>
<path d="M27.528 42C27.4091 41.2823 27.08 40.6176 26.5405 40.0059C25.8486 39.2649 24.6162 38.8943 22.8432 38.8943H16.0324C13.6541 38.8943 11.6865 38.6982 10.1297 38.3059C9.78378 38.9161 9.52432 39.5046 9.35135 40.0713C9.18564 40.6142 9.0993 41.2571 9.09235 42H27.528Z" fill="#333333"/>
<path d="M14.5405 9.14434C15.2757 7.83665 16.3784 7.1828 17.8486 7.1828C19.2757 7.1828 20.3568 7.83665 21.0919 9.14434C21.8703 10.4084 22.2595 12.1956 22.2595 14.5059C22.2595 16.8597 21.8703 18.7123 21.0919 20.0636C20.3568 21.3713 19.2324 22.0251 17.7189 22.0251C16.2054 22.0251 15.1027 21.3713 14.4108 20.0636C13.7622 18.7559 13.4378 16.9251 13.4378 14.5713C13.4378 12.2174 13.8054 10.4084 14.5405 9.14434Z" fill="#333333"/>
</svg>
