<svg width="152" height="40" viewBox="0 0 152 40" fill="none" xmlns="http://www.w3.org/2000/svg">
<path d="M60.2852 18.3164C60.2852 20.2305 59.7188 21.7109 58.5859 22.7578C57.4609 23.7969 55.8594 24.3164 53.7812 24.3164H52.4805V30H47.8516V12.8672H53.7812C55.9453 12.8672 57.5703 13.3398 58.6562 14.2852C59.7422 15.2305 60.2852 16.5742 60.2852 18.3164ZM52.4805 20.543H53.3242C54.0195 20.543 54.5703 20.3477 54.9766 19.957C55.3906 19.5664 55.5977 19.0273 55.5977 18.3398C55.5977 17.1836 54.957 16.6055 53.6758 16.6055H52.4805V20.543Z" fill="#333333"/>
<path d="M60.4206 16.7227H65.2487L67.4987 24.3398C67.6081 24.7383 67.6823 25.2188 67.7214 25.7812H67.8152C67.8777 25.2422 67.9714 24.7695 68.0964 24.3633L70.405 16.7227H75.0808L69.8308 30.8438C69.1589 32.6406 68.3308 33.9102 67.3464 34.6523C66.3698 35.3945 65.0925 35.7656 63.5144 35.7656C62.905 35.7656 62.28 35.6992 61.6394 35.5664V31.9688C62.0534 32.0625 62.5261 32.1094 63.0573 32.1094C63.4636 32.1094 63.8191 32.0312 64.1237 31.875C64.4284 31.7188 64.6941 31.4961 64.9206 31.207C65.1472 30.9258 65.3894 30.4609 65.6472 29.8125L60.4206 16.7227Z" fill="#333333"/>
<path d="M83.9702 16.4883C84.3686 16.4883 84.7475 16.5195 85.1069 16.582L85.3647 16.6289L84.9545 20.9531C84.5795 20.8594 84.06 20.8125 83.3959 20.8125C82.3959 20.8125 81.6694 21.043 81.2162 21.5039C80.7631 21.957 80.5366 22.6133 80.5366 23.4727V30H75.9545V16.7227H79.3647L80.0795 18.8438H80.3022C80.685 18.1406 81.2162 17.5742 81.8959 17.1445C82.5834 16.707 83.2748 16.4883 83.9702 16.4883Z" fill="#333333"/>
<path d="M95.1681 30L94.2892 28.2422H94.1955C93.5783 29.0078 92.9494 29.5312 92.3088 29.8125C91.6681 30.0938 90.84 30.2344 89.8244 30.2344C88.5744 30.2344 87.59 29.8594 86.8713 29.1094C86.1525 28.3594 85.7931 27.3047 85.7931 25.9453C85.7931 24.5312 86.2853 23.4805 87.2697 22.793C88.2541 22.0977 89.6798 21.707 91.547 21.6211L93.7619 21.5508V21.3633C93.7619 20.2695 93.2228 19.7227 92.1447 19.7227C91.1759 19.7227 89.9455 20.0508 88.4533 20.707L87.1291 17.6836C88.6759 16.8867 90.6291 16.4883 92.9884 16.4883C94.6916 16.4883 96.008 16.9102 96.9377 17.7539C97.8752 18.5977 98.3439 19.7773 98.3439 21.293V30H95.1681ZM91.7697 27C92.3244 27 92.797 26.8242 93.1877 26.4727C93.5861 26.1211 93.7853 25.6641 93.7853 25.1016V24.0703L92.7306 24.1172C91.2228 24.1719 90.4689 24.7266 90.4689 25.7812C90.4689 26.5938 90.9025 27 91.7697 27Z" fill="#333333"/>
<path d="M117.042 30V22.7812C117.042 21.8828 116.917 21.2109 116.667 20.7656C116.425 20.3125 116.038 20.0859 115.507 20.0859C114.804 20.0859 114.288 20.3867 113.96 20.9883C113.632 21.5898 113.468 22.5312 113.468 23.8125V30H108.874V22.7812C108.874 21.8828 108.757 21.2109 108.522 20.7656C108.288 20.3125 107.909 20.0859 107.386 20.0859C106.667 20.0859 106.143 20.4062 105.815 21.0469C105.487 21.6875 105.323 22.7344 105.323 24.1875V30H100.741V16.7227H104.198L104.772 18.3633H105.042C105.393 17.7539 105.901 17.2891 106.565 16.9688C107.237 16.6484 107.999 16.4883 108.85 16.4883C110.765 16.4883 112.108 17.0703 112.882 18.2344H113.245C113.62 17.6875 114.14 17.2617 114.804 16.957C115.475 16.6445 116.214 16.4883 117.018 16.4883C118.589 16.4883 119.749 16.8906 120.499 17.6953C121.249 18.5 121.624 19.7227 121.624 21.3633V30H117.042Z" fill="#333333"/>
<path d="M132.681 30L131.802 28.2422H131.709C131.091 29.0078 130.463 29.5312 129.822 29.8125C129.181 30.0938 128.353 30.2344 127.338 30.2344C126.088 30.2344 125.103 29.8594 124.384 29.1094C123.666 28.3594 123.306 27.3047 123.306 25.9453C123.306 24.5312 123.798 23.4805 124.783 22.793C125.767 22.0977 127.193 21.707 129.06 21.6211L131.275 21.5508V21.3633C131.275 20.2695 130.736 19.7227 129.658 19.7227C128.689 19.7227 127.459 20.0508 125.966 20.707L124.642 17.6836C126.189 16.8867 128.142 16.4883 130.502 16.4883C132.205 16.4883 133.521 16.9102 134.451 17.7539C135.388 18.5977 135.857 19.7773 135.857 21.293V30H132.681ZM129.283 27C129.838 27 130.31 26.8242 130.701 26.4727C131.099 26.1211 131.298 25.6641 131.298 25.1016V24.0703L130.244 24.1172C128.736 24.1719 127.982 24.7266 127.982 25.7812C127.982 26.5938 128.416 27 129.283 27Z" fill="#333333"/>
<path d="M141.067 23.2266L137.012 16.7227H142.215L144.231 20.4492L146.293 16.7227H151.508L147.348 23.2266L151.672 30H146.469L144.231 25.9688L142.004 30H136.789L141.067 23.2266Z" fill="#333333"/>
<circle cx="20" cy="20" r="20" fill="#333333"/>
<path d="M40 20C40 31.0457 30.9946 40 19.8858 40C8.77709 40 11.6339 29.2508 11.6339 18.2051C11.6339 7.15943 8.77709 0 19.8858 0C30.9946 0 40 8.95431 40 20Z" fill="#333333"/>
<ellipse cx="20.4348" cy="14.7824" rx="7.3913" ry="6.95652" fill="#333333"/>
<mask id="mask0" mask-type="alpha" maskUnits="userSpaceOnUse" x="0" y="0" width="40" height="40">
<circle cx="20" cy="20" r="20" fill="#333333"/>
</mask>
<g mask="url(#mask0)">
<path d="M35.4511 8.85863C36.6576 13.3612 36.249 17.2034 34.2255 20.3851C32.2156 23.5434 28.7494 25.782 23.8268 27.1011L20.7456 27.9267L24.328 41.2967L13.3633 44.2347L2.56409 3.93164L16.6101 0.16802C21.7363 -1.20553 25.8834 -1.12506 29.0516 0.409434C32.2198 1.94392 34.3529 4.76032 35.4511 8.85863ZM18.3671 19.0501L20.3657 18.5145C22.0127 18.0732 23.1943 17.2642 23.9104 16.0874C24.645 14.9057 24.7956 13.5062 24.3623 11.889C23.6335 9.169 21.7516 8.21564 18.7166 9.02886L15.8852 9.78753L18.3671 19.0501Z" fill="white"/>
</g>
</svg>
