<svg width="144" height="43" viewBox="0 0 144 43" fill="none" xmlns="http://www.w3.org/2000/svg">
<path d="M46.6653 15.288H53.0733V42H46.6653V15.288Z" fill="#333333"/>
<path d="M66.7252 22.308C69.8932 22.308 72.3292 23.244 74.0332 25.116C75.7372 26.988 76.5892 29.556 76.5892 32.82C76.5892 33.324 76.5772 33.708 76.5532 33.972H63.0172C63.3292 35.076 63.8692 35.928 64.6372 36.528C65.4052 37.104 66.3412 37.392 67.4452 37.392C68.2852 37.392 69.0892 37.224 69.8572 36.888C70.6492 36.552 71.3692 36.06 72.0172 35.412L75.3652 38.76C74.3572 39.888 73.1332 40.752 71.6932 41.352C70.2772 41.928 68.6692 42.216 66.8692 42.216C64.7812 42.216 62.9572 41.808 61.3972 40.992C59.8372 40.176 58.6372 39.024 57.7972 37.536C56.9812 36.048 56.5732 34.32 56.5732 32.352C56.5732 30.36 56.9932 28.608 57.8332 27.096C58.6732 25.56 59.8612 24.384 61.3972 23.568C62.9332 22.728 64.7092 22.308 66.7252 22.308ZM70.3612 30.552C70.3612 29.424 70.0252 28.524 69.3532 27.852C68.7052 27.156 67.8412 26.808 66.7612 26.808C65.7532 26.808 64.9012 27.144 64.2052 27.816C63.5332 28.488 63.0892 29.4 62.8732 30.552H70.3612Z" fill="#333333"/>
<path d="M78.8431 22.524L95.9071 22.56V26.448L86.5471 37.104H96.2671V42H78.5191V38.112L87.8791 27.456H78.8431V22.524Z" fill="#333333"/>
<path d="M118.72 22.524V42H112.312V38.832C110.992 41.088 108.916 42.24 106.084 42.288C103.972 42.288 102.28 41.616 101.008 40.272C99.7598 38.904 99.1358 37.092 99.1358 34.836V22.524H105.544V33C105.544 34.104 105.82 34.968 106.372 35.592C106.948 36.216 107.716 36.528 108.676 36.528C109.804 36.504 110.692 36.096 111.34 35.304C111.988 34.488 112.312 33.432 112.312 32.136V22.524H118.72Z" fill="#333333"/>
<path d="M121.71 22.524H129.054L132.186 27.996L135.57 22.524H142.59L136.434 32.028L143.022 42H135.642L132.186 36.06L128.334 42H121.278L127.902 32.028L121.71 22.524Z" fill="#333333"/>
<path d="M23.0373 0H0.0372857C0.0372857 0 -0.0466351 21.8245 0.0373277 23C1.03735 37 12.0374 42 23.0373 42H42.0374V19C42.0374 9 36.0374 1 23.0373 0Z" fill="#333333"/>
<g clip-path="url(#clip0)">
<path d="M10.6233 43V8.875H22.8811C27.2717 8.875 30.6077 9.67969 32.8889 11.2891C35.1858 12.8984 36.3342 15.2344 36.3342 18.2969C36.3342 20.0625 35.928 21.5703 35.1155 22.8203C34.303 24.0703 33.1077 24.9922 31.5295 25.5859C33.3108 26.0547 34.678 26.9297 35.6311 28.2109C36.5842 29.4922 37.0608 31.0547 37.0608 32.8984C37.0608 36.2422 35.9983 38.7578 33.8733 40.4453C31.7639 42.1172 28.6311 42.9688 24.4749 43H10.6233ZM18.8499 28.4922V36.6719H24.2405C25.7249 36.6719 26.8655 36.3359 27.6624 35.6641C28.4592 34.9766 28.8577 34.0156 28.8577 32.7812C28.8577 29.9375 27.4436 28.5078 24.6155 28.4922H18.8499ZM18.8499 23.1016H23.1389C24.9358 23.0859 26.217 22.7578 26.9827 22.1172C27.7483 21.4766 28.1311 20.5312 28.1311 19.2812C28.1311 17.8438 27.717 16.8125 26.8889 16.1875C26.0608 15.5469 24.7249 15.2266 22.8811 15.2266H18.8499V23.1016Z" fill="white"/>
</g>
<defs>
<clipPath id="clip0">
<rect x="0.0373535" width="42" height="42" fill="white"/>
</clipPath>
</defs>
</svg>
