<svg width="179" height="40" viewBox="0 0 179 40" fill="none" xmlns="http://www.w3.org/2000/svg">
<rect width="40" height="40" fill="#333333"/>
<g clip-path="url(#clip0)">
<rect x="16" y="6" width="28" height="22" stroke="white" stroke-width="2"/>
<path d="M40 28H41V27V21H47V36H13V21H19V27V28H20H40Z" fill="#333333" stroke="white" stroke-width="2"/>
<rect x="16" y="36" width="2" height="5" fill="white"/>
</g>
<path d="M60.05 28.25C59.25 28.25 58.4666 28.1584 57.7 27.975C56.9333 27.7917 56.2416 27.5 55.625 27.1C55.0083 26.6834 54.5083 26.15 54.125 25.5C53.7583 24.85 53.575 24.0667 53.575 23.15H57.075C57.075 23.25 57.1083 23.4084 57.175 23.625C57.2583 23.825 57.4083 24.0417 57.625 24.275C57.8583 24.5084 58.1833 24.7084 58.6 24.875C59.0333 25.025 59.6083 25.1 60.325 25.1C60.6416 25.1 60.9666 25.075 61.3 25.025C61.6333 24.975 61.9166 24.875 62.15 24.725C62.3833 24.5584 62.5 24.3084 62.5 23.975C62.5 23.625 62.3333 23.35 62 23.15C61.6833 22.95 61.2583 22.7917 60.725 22.675C60.2083 22.5417 59.6333 22.4084 59 22.275C58.3833 22.1417 57.7666 21.975 57.15 21.775C56.5333 21.575 55.9666 21.3084 55.45 20.975C54.95 20.6251 54.5583 20.1834 54.275 19.65C54.0083 19.1 53.9 18.4167 53.95 17.6C54.0333 16.3667 54.6166 15.4084 55.7 14.725C56.7833 14.025 58.2916 13.675 60.225 13.675C61.2583 13.675 62.225 13.8584 63.125 14.225C64.0416 14.5917 64.7833 15.15 65.35 15.9C65.9333 16.65 66.225 17.6 66.225 18.75H62.85C62.85 18.2334 62.675 17.85 62.325 17.6C61.9916 17.3334 61.5833 17.1584 61.1 17.0751C60.6333 16.9917 60.2083 16.95 59.825 16.95C59.2083 16.95 58.6916 17.025 58.275 17.175C57.875 17.325 57.675 17.6167 57.675 18.05C57.675 18.4334 57.8416 18.7334 58.175 18.95C58.5083 19.15 58.9416 19.3167 59.475 19.4501C60.0083 19.5667 60.5916 19.6917 61.225 19.825C61.875 19.9417 62.5166 20.0917 63.15 20.275C63.7833 20.4584 64.35 20.7167 64.85 21.05C65.3666 21.3667 65.7666 21.7917 66.05 22.325C66.35 22.8584 66.4666 23.5417 66.4 24.375C66.3166 25.5917 65.7 26.5417 64.55 27.225C63.4166 27.9084 61.9166 28.25 60.05 28.25Z" fill="#333333"/>
<path d="M78.4246 28.25C77.0912 28.25 75.8746 27.9834 74.7746 27.4501C73.6746 26.9167 72.7996 26.1167 72.1496 25.05C71.4996 23.9834 71.1829 22.6584 71.1996 21.075C71.2162 19.525 71.5412 18.2001 72.1746 17.1C72.8246 15.9834 73.6996 15.1334 74.7996 14.55C75.8996 13.9667 77.1329 13.675 78.4996 13.675C79.9162 13.675 81.1079 13.9334 82.0746 14.45C83.0412 14.95 83.7912 15.6167 84.3246 16.45C84.8746 17.2667 85.2246 18.15 85.3746 19.1H81.7746C81.6912 18.4667 81.4496 18 81.0496 17.7C80.6662 17.4 80.2329 17.2084 79.7496 17.125C79.2829 17.025 78.8662 16.975 78.4996 16.975C77.1996 16.975 76.2329 17.3167 75.5996 18C74.9662 18.6667 74.6496 19.6 74.6496 20.8C74.6496 22.1167 74.9579 23.1417 75.5746 23.875C76.1912 24.6084 77.1579 24.975 78.4746 24.975C78.8579 24.975 79.2912 24.9251 79.7746 24.8251C80.2579 24.7084 80.6912 24.4834 81.0746 24.15C81.4746 23.8167 81.7162 23.3167 81.7996 22.65H85.4246C85.2579 23.6334 84.8996 24.5584 84.3496 25.425C83.7996 26.275 83.0329 26.9584 82.0496 27.475C81.0829 27.9917 79.8746 28.25 78.4246 28.25Z" fill="#333333"/>
<path d="M96.8595 28.35C94.5262 28.35 92.7429 27.6917 91.5095 26.375C90.2762 25.0417 89.6595 23.25 89.6595 21C89.6595 19.5167 89.9262 18.2334 90.4595 17.15C90.9929 16.05 91.7929 15.2 92.8595 14.6C93.9262 13.9834 95.2595 13.675 96.8595 13.675C99.1929 13.675 100.968 14.3417 102.185 15.675C103.401 16.9917 104.01 18.7667 104.01 21C104.01 22.45 103.735 23.7334 103.185 24.85C102.651 25.9501 101.851 26.8084 100.785 27.425C99.7345 28.0417 98.4262 28.35 96.8595 28.35ZM96.8095 24.975C97.6595 24.975 98.3595 24.8001 98.9095 24.4501C99.4762 24.0834 99.8929 23.6 100.16 23C100.443 22.3834 100.585 21.7167 100.585 21C100.585 20.2667 100.443 19.5917 100.16 18.975C99.8929 18.3584 99.4762 17.8667 98.9095 17.5C98.3595 17.1334 97.6595 16.95 96.8095 16.95C95.5929 16.95 94.6595 17.3334 94.0095 18.1C93.3762 18.8667 93.0595 19.8334 93.0595 21C93.0595 21.7 93.1929 22.3584 93.4595 22.975C93.7429 23.5751 94.1595 24.0584 94.7095 24.425C95.2595 24.7917 95.9595 24.975 96.8095 24.975Z" fill="#333333"/>
<path d="M112.788 28H109.288V13.925H115.238C116.838 13.925 118.096 14.3417 119.013 15.175C119.946 15.9917 120.413 17.225 120.413 18.875C120.413 20.275 119.938 21.3834 118.988 22.2C118.038 23 116.788 23.4 115.238 23.4H112.788V28ZM114.713 16.725H112.788V20.9501H114.713C115.413 20.9501 116.013 20.775 116.513 20.425C117.013 20.0584 117.263 19.525 117.263 18.825C117.263 18.1084 117.013 17.5834 116.513 17.25C116.03 16.9 115.43 16.725 114.713 16.725Z" fill="#333333"/>
<path d="M125.722 28V13.925H131.447C133.28 13.925 134.73 14.25 135.797 14.9C136.863 15.55 137.397 16.6417 137.397 18.175C137.397 19.4417 137.113 20.425 136.547 21.125C135.997 21.825 135.247 22.175 134.297 22.175C134.763 22.175 135.113 22.2834 135.347 22.5C135.597 22.7 135.772 22.9667 135.872 23.3C135.988 23.6167 136.08 23.9417 136.147 24.275C136.213 24.6084 136.305 24.9084 136.422 25.175C136.538 25.425 136.722 25.5917 136.972 25.675C137.238 25.7417 137.613 25.675 138.097 25.475V27.375C137.63 27.775 137.113 28.0334 136.547 28.15C135.98 28.2834 135.438 28.25 134.922 28.05C134.422 27.8667 134.005 27.5084 133.672 26.975C133.338 26.425 133.172 25.6834 133.172 24.75C133.172 24.35 133.138 23.9917 133.072 23.675C133.022 23.3417 132.872 23.0667 132.622 22.85C132.372 22.6334 131.98 22.4917 131.447 22.425C130.913 22.3417 130.172 22.3417 129.222 22.425V28H125.722ZM129.222 19.975H130.972C131.738 19.975 132.363 19.9667 132.847 19.95C133.33 19.9334 133.688 19.825 133.922 19.625C134.172 19.4084 134.297 19.025 134.297 18.475C134.297 17.8584 134.147 17.4334 133.847 17.2C133.563 16.95 133.138 16.8084 132.572 16.775C132.022 16.7417 131.338 16.725 130.522 16.725H129.222V19.975Z" fill="#333333"/>
<path d="M149.925 28.35C147.825 28.35 146.233 27.8001 145.15 26.7001C144.083 25.5834 143.55 24.0167 143.55 22V13.925H147.3V21.975C147.3 22.675 147.391 23.2334 147.575 23.65C147.758 24.05 147.983 24.35 148.25 24.55C148.533 24.75 148.825 24.8834 149.125 24.95C149.425 25 149.691 25.025 149.925 25.025C150.308 25.025 150.7 24.9667 151.1 24.85C151.516 24.7334 151.866 24.4584 152.15 24.025C152.433 23.5917 152.575 22.9084 152.575 21.975V13.925H156.325V22C156.325 24.05 155.791 25.625 154.725 26.725C153.675 27.8084 152.075 28.35 149.925 28.35Z" fill="#333333"/>
<path d="M162.281 28V13.925H168.356L170.431 26.55H170.481L172.506 13.925H178.556V28H174.931L175.181 15.4H175.156L172.956 28H167.881L165.731 15.4H165.681L165.906 28H162.281Z" fill="#333333"/>
<defs>
<clipPath id="clip0">
<rect x="12" y="4" width="28" height="36" fill="white"/>
</clipPath>
</defs>
</svg>
