<svg width="129" height="32" viewBox="0 0 129 32" fill="none" xmlns="http://www.w3.org/2000/svg">
<path d="M68.5624 7.23624C68.2667 7.26312 67.9844 7.31689 67.7156 7.39754C67.4467 7.47819 67.1689 7.60365 66.8822 7.77391C66.4968 7.99794 66.1966 8.2399 65.9816 8.49977C65.7755 8.75069 65.5694 9.10018 65.3632 9.54824C65.0854 10.1666 64.6956 11.0717 64.1938 12.2635C63.692 13.4464 63.1184 14.7951 62.4732 16.3095C61.8997 17.6716 61.2769 19.1637 60.6048 20.7857C59.9417 22.4077 59.3054 23.9624 58.6961 25.45H55.9942C54.7397 22.3763 53.4627 19.2533 52.1633 16.081C50.8639 12.9087 49.9499 10.7042 49.4212 9.46759C49.215 9.01953 49.0134 8.68348 48.8163 8.45945C48.6281 8.22646 48.3234 7.98898 47.9022 7.74703C47.5975 7.57676 47.3287 7.46027 47.0957 7.39754C46.8627 7.32585 46.5535 7.26312 46.1682 7.20935V6.16088H56.505V7.18247C55.5372 7.29897 54.8786 7.42442 54.5291 7.55884C54.1885 7.6843 54.0183 7.8456 54.0183 8.04275C54.0183 8.14132 54.0317 8.24886 54.0586 8.36536C54.0945 8.47289 54.1437 8.62075 54.2065 8.80894C54.4932 9.59753 55.013 10.888 55.7657 12.6802C56.5185 14.4635 57.6342 17.1877 59.1128 20.8529C60.0178 18.6215 60.7706 16.7352 61.371 15.1938C61.9714 13.6525 62.5001 12.2904 62.9571 11.1075C63.1812 10.534 63.3649 10.0008 63.5083 9.50792C63.6606 9.00609 63.7368 8.62971 63.7368 8.3788C63.7368 8.09204 63.5307 7.85456 63.1184 7.66638C62.7062 7.46923 61.9445 7.32585 60.8333 7.23624V6.16088H68.5624V7.23624Z" fill="#333333"/>
<path d="M77.2996 25.2349H68.8044V24.2537C69.0374 24.2358 69.2659 24.2134 69.4899 24.1865C69.7139 24.1596 69.9066 24.1148 70.0679 24.052C70.3547 23.9445 70.5563 23.7922 70.6728 23.595C70.7893 23.3889 70.8475 23.1201 70.8475 22.7885V14.9653C70.8475 14.6517 70.7758 14.3784 70.6325 14.1454C70.4891 13.9034 70.3099 13.7108 70.0948 13.5674C69.9335 13.4598 69.6871 13.3568 69.3555 13.2582C69.0329 13.1596 68.7372 13.0969 68.4683 13.07V12.0888L75.0548 11.7393L75.2565 11.9409V22.6138C75.2565 22.9274 75.3237 23.1962 75.4581 23.4203C75.5925 23.6354 75.7852 23.7967 76.0361 23.9042C76.2153 23.9848 76.4125 24.0565 76.6276 24.1193C76.8426 24.182 77.0667 24.2268 77.2996 24.2537V25.2349ZM75.3371 6.90019C75.3371 7.58125 75.0728 8.16373 74.5441 8.64764C74.0243 9.12258 73.406 9.36006 72.6891 9.36006C71.9632 9.36006 71.3359 9.12258 70.8072 8.64764C70.2875 8.16373 70.0276 7.58125 70.0276 6.90019C70.0276 6.21913 70.2875 5.63665 70.8072 5.15274C71.3359 4.66883 71.9632 4.42688 72.6891 4.42688C73.4149 4.42688 74.0377 4.66883 74.5575 5.15274C75.0773 5.63665 75.3371 6.21913 75.3371 6.90019Z" fill="#333333"/>
<path d="M84.7599 25.692C83.8907 25.692 83.0393 25.562 82.2059 25.3021C81.3815 25.0512 80.7408 24.7824 80.2837 24.4956L79.8805 25.4097H78.832L78.6573 20.3959H79.6385C79.773 20.7991 79.997 21.2561 80.3106 21.7669C80.6243 22.2688 80.9827 22.7213 81.386 23.1246C81.8072 23.5278 82.2866 23.8683 82.8243 24.1461C83.3709 24.4239 83.9534 24.5628 84.5717 24.5628C85.3872 24.5628 85.9921 24.406 86.3864 24.0924C86.7896 23.7698 86.9913 23.2769 86.9913 22.6138C86.9913 22.2553 86.9016 21.9596 86.7224 21.7266C86.5432 21.4936 86.2968 21.292 85.9831 21.1217C85.6336 20.9425 85.2483 20.7901 84.8271 20.6647C84.4149 20.5392 83.9041 20.3869 83.2947 20.2077C82.6854 20.0284 82.1611 19.8492 81.722 19.67C81.2919 19.4818 80.8438 19.1906 80.3778 18.7963C79.9746 18.4468 79.652 18.0256 79.41 17.5327C79.1681 17.0399 79.0471 16.4529 79.0471 15.7718C79.0471 14.5083 79.5758 13.4867 80.6332 12.7071C81.6996 11.9275 83.0931 11.5376 84.8137 11.5376C85.6291 11.5376 86.3774 11.6228 87.0585 11.793C87.7485 11.9543 88.3265 12.1336 88.7925 12.3307L89.0747 11.5376H90.0963L90.3114 16.1213H89.357C89.0434 15.1894 88.5057 14.3873 87.744 13.7152C86.9823 13.0342 86.1623 12.6936 85.2841 12.6936C84.5941 12.6936 84.052 12.837 83.6577 13.1238C83.2634 13.4105 83.0662 13.8093 83.0662 14.3201C83.0662 15.0012 83.353 15.494 83.9265 15.7987C84.509 16.1034 85.32 16.3902 86.3595 16.659C87.9636 17.0712 89.1375 17.6358 89.8813 18.3527C90.625 19.0606 90.9969 19.9657 90.9969 21.0679C90.9969 22.5376 90.4189 23.6757 89.2629 24.4822C88.1159 25.2887 86.6149 25.692 84.7599 25.692Z" fill="#333333"/>
<path d="M101.146 25.2349H92.6503V24.2537C92.8833 24.2358 93.1118 24.2134 93.3358 24.1865C93.5599 24.1596 93.7525 24.1148 93.9138 24.052C94.2006 23.9445 94.4022 23.7922 94.5187 23.595C94.6352 23.3889 94.6935 23.1201 94.6935 22.7885V14.9653C94.6935 14.6517 94.6218 14.3784 94.4784 14.1454C94.335 13.9034 94.1558 13.7108 93.9407 13.5674C93.7794 13.4598 93.533 13.3568 93.2014 13.2582C92.8788 13.1596 92.5831 13.0969 92.3142 13.07V12.0888L98.9008 11.7393L99.1024 11.9409V22.6138C99.1024 22.9274 99.1696 23.1962 99.304 23.4203C99.4385 23.6354 99.6311 23.7967 99.882 23.9042C100.061 23.9848 100.258 24.0565 100.473 24.1193C100.689 24.182 100.913 24.2268 101.146 24.2537V25.2349ZM99.1831 6.90019C99.1831 7.58125 98.9187 8.16373 98.39 8.64764C97.8702 9.12258 97.2519 9.36006 96.535 9.36006C95.8091 9.36006 95.1819 9.12258 94.6531 8.64764C94.1334 8.16373 93.8735 7.58125 93.8735 6.90019C93.8735 6.21913 94.1334 5.63665 94.6531 5.15274C95.1819 4.66883 95.8091 4.42688 96.535 4.42688C97.2609 4.42688 97.8837 4.66883 98.4034 5.15274C98.9232 5.63665 99.1831 6.21913 99.1831 6.90019Z" fill="#333333"/>
<path d="M112.383 24.6166C111.809 24.8675 111.196 25.0916 110.541 25.2887C109.887 25.4948 109.09 25.5979 108.149 25.5979C106.751 25.5979 105.711 25.2573 105.03 24.5763C104.358 23.8952 104.022 22.9229 104.022 21.6594V13.4061H101.603V11.9543H104.076V7.88145H108.445V11.9543H112.208V13.4061H108.471V20.7722C108.471 21.8207 108.615 22.5645 108.902 23.0036C109.197 23.4427 109.722 23.6622 110.474 23.6622C110.716 23.6622 111.052 23.6443 111.482 23.6085C111.913 23.5726 112.213 23.5323 112.383 23.4875V24.6166Z" fill="#333333"/>
<path d="M128.513 12.8818C128.11 12.9446 127.716 13.0969 127.33 13.3389C126.954 13.5808 126.64 13.9572 126.389 14.468C125.619 16.0989 124.826 17.8374 124.01 19.6834C123.195 21.5205 122.29 23.5099 121.295 25.6516C120.739 26.8524 120.202 27.8113 119.682 28.5282C119.162 29.2451 118.674 29.7962 118.217 30.1816C117.787 30.54 117.361 30.7999 116.94 30.9612C116.519 31.1225 116.093 31.2031 115.663 31.2031C114.812 31.2031 114.121 30.9657 113.593 30.4907C113.073 30.0158 112.813 29.4826 112.813 28.8911C112.813 28.6402 112.84 28.4072 112.894 28.1922C112.957 27.9771 113.082 27.7531 113.27 27.5201C113.414 27.3229 113.633 27.1526 113.929 27.0093C114.233 26.8748 114.574 26.8076 114.95 26.8076C115.452 26.8076 115.932 26.9824 116.389 27.3319C116.846 27.6814 117.321 28.1653 117.814 28.7836C118.109 28.4879 118.472 28.0443 118.902 27.4529C119.341 26.8704 119.664 26.27 119.87 25.6516C118.804 23.4113 117.858 21.4712 117.034 19.8313C116.209 18.1824 115.286 16.3454 114.265 14.3201C114.041 13.89 113.741 13.5584 113.364 13.3254C112.988 13.0835 112.589 12.9356 112.168 12.8818V11.9006H120.394V12.8818C120.09 12.8908 119.736 12.958 119.332 13.0835C118.938 13.2089 118.741 13.3702 118.741 13.5674C118.741 13.6391 118.754 13.7197 118.781 13.8093C118.808 13.89 118.858 14.011 118.929 14.1723C119.234 14.7995 119.664 15.6733 120.22 16.7934C120.784 17.9046 121.438 19.2085 122.182 20.705C122.738 19.4325 123.208 18.3392 123.594 17.4252C123.988 16.5022 124.369 15.5971 124.736 14.7099C124.826 14.4859 124.875 14.3112 124.884 14.1857C124.902 14.0513 124.911 13.9617 124.911 13.9169C124.911 13.7556 124.83 13.6167 124.669 13.5002C124.517 13.3747 124.333 13.2672 124.118 13.1776C123.894 13.0879 123.679 13.0207 123.473 12.9759C123.266 12.9311 123.096 12.8998 122.962 12.8818V11.9006H128.513V12.8818Z" fill="#333333"/>
<g clip-path="url(#clip0)">
<path d="M9.16339 0C14.2369 0 18.3268 4.47083 18.3268 9.94103V17.2056L3.77925 4.10265L14.9115 19.8821H9.16339C4.08988 19.8821 0 15.4112 0 9.94103V0H9.16339Z" fill="#333333"/>
<path d="M24.4874 3.3136C17.7054 3.3136 12.2695 9.25718 12.2695 16.5683L12.6173 27.5289L31.6835 8.7838L14.9114 29.823H24.4874C31.2693 29.823 36.7053 23.8794 36.7053 16.5683V3.3136H24.4874Z" fill="#333333"/>
</g>
<defs>
<clipPath id="clip0">
<rect width="36.7053" height="29.8231" fill="white"/>
</clipPath>
</defs>
</svg>
