<svg width="140" height="42" viewBox="0 0 140 42" fill="none" xmlns="http://www.w3.org/2000/svg">
<circle cx="21" cy="21" r="21" fill="#333333"/>
<path d="M15 8H28.0541C31.0054 8 33.6036 8.53238 35.8486 9.59714C38.1189 10.6371 39.8721 12.1352 41.1081 14.0914C42.3694 16.0476 43 18.3505 43 21C43 23.6495 42.3694 25.9524 41.1081 27.9086C39.8721 29.8648 38.1189 31.3752 35.8486 32.44C33.6036 33.48 31.0054 34 28.0541 34H15V8ZM27.6757 27.1657C29.5928 27.1657 31.1189 26.6333 32.2541 25.5686C33.4144 24.479 33.9946 22.9562 33.9946 21C33.9946 19.0438 33.4144 17.5333 32.2541 16.4686C31.1189 15.379 29.5928 14.8343 27.6757 14.8343H23.9297V27.1657H27.6757Z" fill="white"/>
<path d="M62.9599 25.78C62.9599 25.88 62.9299 26.41 62.8699 27.37H51.4699C51.7099 27.99 52.1099 28.47 52.6699 28.81C53.2299 29.13 53.9299 29.29 54.7699 29.29C55.4899 29.29 56.0899 29.2 56.5699 29.02C57.0699 28.84 57.6099 28.53 58.1899 28.09L61.7299 31.66C60.1299 33.42 57.7399 34.3 54.5599 34.3C52.5799 34.3 50.8399 33.94 49.3399 33.22C47.8399 32.48 46.6799 31.46 45.8599 30.16C45.0399 28.86 44.6299 27.4 44.6299 25.78C44.6299 24.14 45.0299 22.68 45.8299 21.4C46.6499 20.1 47.7599 19.09 49.1599 18.37C50.5799 17.65 52.1699 17.29 53.9299 17.29C55.5899 17.29 57.0999 17.62 58.4599 18.28C59.8399 18.94 60.9299 19.91 61.7299 21.19C62.5499 22.47 62.9599 24 62.9599 25.78ZM53.9899 21.91C53.2899 21.91 52.7099 22.1 52.2499 22.48C51.7899 22.86 51.4899 23.4 51.3499 24.1H56.6299C56.4899 23.42 56.1899 22.89 55.7299 22.51C55.2699 22.11 54.6899 21.91 53.9899 21.91Z" fill="#333333"/>
<path d="M71.41 17.29C74.29 17.29 76.49 17.94 78.01 19.24C79.53 20.52 80.29 22.5 80.29 25.18V34H73.99V31.84C73.21 33.48 71.66 34.3 69.34 34.3C68.04 34.3 66.93 34.08 66.01 33.64C65.11 33.18 64.42 32.57 63.94 31.81C63.48 31.03 63.25 30.16 63.25 29.2C63.25 27.58 63.87 26.35 65.11 25.51C66.35 24.67 68.23 24.25 70.75 24.25H73.48C73.26 22.97 72.23 22.33 70.39 22.33C69.65 22.33 68.9 22.45 68.14 22.69C67.38 22.91 66.73 23.22 66.19 23.62L64.03 19.15C64.97 18.57 66.1 18.12 67.42 17.8C68.76 17.46 70.09 17.29 71.41 17.29ZM71.38 30.22C71.86 30.22 72.29 30.09 72.67 29.83C73.05 29.57 73.33 29.18 73.51 28.66V27.52H71.83C70.45 27.52 69.76 27.98 69.76 28.9C69.76 29.28 69.9 29.6 70.18 29.86C70.48 30.1 70.88 30.22 71.38 30.22Z" fill="#333333"/>
<path d="M82.6202 11.74H89.4002V34H82.6202V11.74Z" fill="#333333"/>
<path d="M100.475 34.3C98.6554 34.3 97.0154 33.94 95.5554 33.22C94.1154 32.48 92.9854 31.47 92.1654 30.19C91.3454 28.89 90.9354 27.42 90.9354 25.78C90.9354 24.14 91.3454 22.68 92.1654 21.4C92.9854 20.1 94.1154 19.09 95.5554 18.37C97.0154 17.65 98.6554 17.29 100.475 17.29C102.315 17.29 103.955 17.65 105.395 18.37C106.855 19.09 107.985 20.1 108.785 21.4C109.605 22.68 110.015 24.14 110.015 25.78C110.015 27.42 109.605 28.89 108.785 30.19C107.985 31.47 106.855 32.48 105.395 33.22C103.955 33.94 102.315 34.3 100.475 34.3ZM100.475 29.02C101.255 29.02 101.895 28.74 102.395 28.18C102.895 27.6 103.145 26.8 103.145 25.78C103.145 24.76 102.895 23.97 102.395 23.41C101.895 22.85 101.255 22.57 100.475 22.57C99.6954 22.57 99.0554 22.85 98.5554 23.41C98.0554 23.97 97.8054 24.76 97.8054 25.78C97.8054 26.8 98.0554 27.6 98.5554 28.18C99.0554 28.74 99.6954 29.02 100.475 29.02Z" fill="#333333"/>
<path d="M133.257 17.29C135.237 17.29 136.817 17.9 137.997 19.12C139.197 20.34 139.797 22.18 139.797 24.64V34H133.017V25.81C133.017 23.93 132.407 22.99 131.187 22.99C130.547 22.99 130.027 23.23 129.627 23.71C129.247 24.19 129.057 24.95 129.057 25.99V34H122.277V25.81C122.277 23.93 121.667 22.99 120.447 22.99C119.807 22.99 119.287 23.23 118.887 23.71C118.507 24.19 118.317 24.95 118.317 25.99V34H111.537V17.59H117.987V19.12C119.207 17.9 120.757 17.29 122.637 17.29C123.737 17.29 124.727 17.5 125.607 17.92C126.487 18.32 127.207 18.94 127.767 19.78C128.427 18.98 129.227 18.37 130.167 17.95C131.107 17.51 132.137 17.29 133.257 17.29Z" fill="#333333"/>
</svg>
